<svg xmlns="http://www.w3.org/2000/svg" viewBox="0 0 112.24 118.08">
    <defs>
        <style>
            .cls-1 {
                fill: #46cd50;
            }

            .cls-2 {
                fill: #fad0d0;
            }

            .cls-3 {
                fill: none;
                stroke: #283764;
                stroke-linecap: round;
                stroke-linejoin: round;
                stroke-width: 3px;
            }
        </style>
    </defs>
    <title>Resurs 33</title>
    <g id="Lager_2" data-name="Lager 2">
        <g id="Lager_1-2" data-name="Lager 1">
            <path class="cls-1"
                d="M110.7,75.13a39.46,39.46,0,0,1-37.49,41.33C16.61,119.22,2.84,72.64,1.58,46.93.24,19.44,15.34,2.33,31.24,1.55,58.17.24,51.21,23.85,63,35.41,73.58,45.81,109.32,46.88,110.7,75.13Z" />
            <circle class="cls-2" cx="32.37" cy="21.83" r="11.73" />
            <path class="cls-3"
                d="M110.7,75.13a39.46,39.46,0,0,1-37.49,41.33C16.61,119.22,2.84,72.64,1.58,46.93.24,19.44,15.34,2.33,31.24,1.55,58.17.24,51.21,23.85,63,35.41,73.58,45.81,109.32,46.88,110.7,75.13Z" />
            <path class="cls-3" d="M54.38,38.89A24.49,24.49,0,0,0,67,48" />
            <path class="cls-3" d="M55.66,48.45A39.36,39.36,0,0,0,71,54.87" />
            <path class="cls-3" d="M63.52,57.93A38.07,38.07,0,0,0,80.45,60" />
            <path class="cls-3" d="M20.88,88.67a82.09,82.09,0,0,0,10.92,9" />
            <path class="cls-3" d="M32.67,91.83a12.91,12.91,0,0,0,2.78,2.43,54.89,54.89,0,0,0,12.18,6.4" />
            <path class="cls-3" d="M38.75,103.25a69.24,69.24,0,0,0,12.12,5.09" />
            <path class="cls-3" d="M19,73.49a67.56,67.56,0,0,0,9.62,10.79" />
            <path class="cls-3" d="M88,59.35a14.45,14.45,0,0,1,14.14,12.1" />
            <path class="cls-3" d="M102.06,79.54a32.73,32.73,0,0,1-2.4,11" />
            <path class="cls-3" d="M94.33,81.07A42.65,42.65,0,0,1,92,92.54" />
            <path class="cls-3"
                d="M94.33,75.72A28.12,28.12,0,0,0,94,71a7.12,7.12,0,0,0-1.59-3.84,5.26,5.26,0,0,0-1.61-1.24" />
            <path class="cls-3" d="M73.39,49.79A53.11,53.11,0,0,0,81.59,53" />
            <path class="cls-3" d="M56.75,55.76a35.82,35.82,0,0,1-8.08-6.13" />
            <path class="cls-3" d="M50.48,43.3a26.94,26.94,0,0,1-4.29-7.49" />
            <path class="cls-3" d="M16.3,65.37a17.26,17.26,0,0,1-2.88-5.2" />
        </g>
    </g>
</svg>